<svg width="32" height="32" viewBox="0 0 32 32" fill="none" xmlns="http://www.w3.org/2000/svg">
<path d="M8.53773 9.4781L5.43783 12.5825C4.29576 13.7263 3.14716 14.87 2.01162 16.0268C1.74404 16.3013 1.54174 16.6673 1.46342 17.0268C1.05228 18.9156 0.654184 20.8044 0.25609 22.6932L0.0342024 23.7389C-0.0702154 24.2487 0.0668332 24.7585 0.412717 25.1049C0.680288 25.3728 1.05228 25.5232 1.44384 25.5232C1.55479 25.5232 1.66573 25.5101 1.77668 25.4905L2.92527 25.2487C4.75258 24.8631 6.58642 24.4709 8.41374 24.0918C8.83793 24.0003 9.19687 23.8108 9.5036 23.5036C14.6331 18.3601 19.7627 13.223 24.8922 8.09253C25.2707 7.71346 25.4795 7.2625 25.5317 6.70697C25.5383 6.61547 25.5317 6.52397 25.5122 6.43901C25.4795 6.3083 25.4534 6.17105 25.4208 6.04033C25.349 5.70702 25.2707 5.32795 25.1141 4.96195C24.1547 2.76597 22.5624 1.19741 20.3826 0.315091C19.9454 0.138628 19.482 0.0798071 19.0774 0.0275217L18.9665 0.0144504C18.3791 -0.0574419 17.844 0.138628 17.3806 0.609196C14.4439 3.56332 11.4875 6.52397 8.53773 9.4781ZM18.7511 1.58955C18.7642 1.58955 18.7707 1.58955 18.7837 1.58955L18.8947 1.60262C19.234 1.64183 19.5473 1.68105 19.7953 1.78562C21.5704 2.50454 22.8756 3.78553 23.6653 5.58937C23.7566 5.79851 23.8154 6.06648 23.8741 6.34751C23.8937 6.45208 23.9198 6.55665 23.9394 6.66122C23.9133 6.77886 23.8676 6.85729 23.7762 6.94226C18.6402 12.0728 13.5106 17.2163 8.38111 22.3534C8.29627 22.4383 8.21795 22.4775 8.10048 22.5037C6.26664 22.8893 4.43933 23.2749 2.60549 23.6605L1.63963 23.8631L1.82236 23.0069C2.22045 21.1247 2.61854 19.2358 3.02316 17.3536C3.03622 17.2948 3.08843 17.2033 3.14716 17.1379C4.2827 15.9876 5.41825 14.8439 6.56032 13.7067L9.66022 10.6022C12.6166 7.64157 15.5729 4.68092 18.5227 1.71372C18.6467 1.60915 18.7054 1.58955 18.7511 1.58955Z" transform="translate(6.46582)" fill="#008CC8"/>
<path d="M2.53866 1.60777H13.9333C14.377 1.60777 14.736 1.24831 14.736 0.803887C14.736 0.359462 14.377 -4.38796e-08 13.9333 -4.38796e-08H2.53866C1.13554 -4.38796e-08 0 1.14374 0 2.54237V23.9401C0 25.3453 1.14207 26.4825 2.53866 26.4825H23.8986C25.3018 26.4825 26.4373 25.3388 26.4373 23.9401V12.9929C26.4373 12.5485 26.0784 12.189 25.6346 12.189C25.1908 12.189 24.8319 12.5485 24.8319 12.9929V23.9401C24.8319 24.4565 24.4077 24.8813 23.8921 24.8813H2.53866C2.0231 24.8813 1.5989 24.4565 1.5989 23.9401V2.54891C1.5989 2.03259 2.0231 1.60777 2.53866 1.60777Z" transform="translate(0 5.51746)" fill="#008CC8"/>
</svg>
