<svg width="15" height="18" viewBox="0 0 15 18" fill="none" xmlns="http://www.w3.org/2000/svg">
<path d="M5.20342 4.41813L1.54711 0.761729C1.15631 0.371096 0.640526 0.117063 -1.0021e-07 -1.13519e-09V5.96495H5.96508C5.84789 5.32414 5.59381 4.8086 5.20342 4.41813Z" transform="translate(9 0.0350342)" fill="#164C8B"/>
<path d="M8.62503 7.4999C8.31239 7.4999 8.04674 7.39059 7.82804 7.17182C7.60927 6.95317 7.5 6.68752 7.5 6.37495V0H1.12495C0.812509 0 0.546858 0.109305 0.328123 0.328079C0.109347 0.546731 5.88736e-08 0.812379 5.88736e-08 1.12494V16.875C5.88736e-08 17.1877 0.109347 17.4533 0.328123 17.672C0.546899 17.8906 0.812509 18 1.12499 18H13.8753C14.1877 18 14.4532 17.8906 14.6719 17.672C14.8906 17.4531 15 17.1877 15 16.875V7.4999H8.62503Z" fill="#164C8B"/>
</svg>
