<svg width="54" height="28" viewBox="0 0 54 28" fill="none" xmlns="http://www.w3.org/2000/svg">
<path d="M3.34916 0.135304C2.29965 0.296696 1.3093 0.232925 0.381488 -1.51645e-06C-0.287499 1.06566 -0.114108 2.60609 1.20056 3.37526C3.1185 4.49725 5.40316 5.2746 7.64859 4.70223C5.93441 3.25704 4.4974 1.72801 3.34916 0.135304Z" transform="translate(10.8923 17.8805)" fill="#9DE7F9"/>
<path d="M3.45231 3.37527C2.22423 2.65682 1.99231 1.26547 2.51237 0.21657C1.76977 0.248558 1.05881 0.169983 0.381488 -1.51645e-06C-0.287499 1.06567 -0.114108 2.60609 1.20056 3.37527C2.98656 4.42012 5.09066 5.16549 7.18484 4.80088C5.86775 4.58959 4.59496 4.04371 3.45231 3.37527Z" transform="translate(10.8925 17.8805)" fill="#6EDCF9"/>
<path d="M6.52926 1.42675C4.00677 1.70906 1.91374 1.11008 0.184798 -1.01097e-07C-0.155022 0.90593 -0.0529283 1.97626 0.715515 2.86221C2.79536 5.26011 5.66642 7.29558 9.2166 6.75147C7.98367 5.04116 7.08255 3.25797 6.52926 1.42675Z" transform="translate(5.02423 11.3704)" fill="#6EDCF9"/>
<path d="M3.13623 2.8621C2.65213 2.30401 2.43297 1.67283 2.42168 1.05562C1.61632 0.799198 0.871292 0.440698 0.184798 6.31855e-07C-0.155022 0.905931 -0.0529283 1.97625 0.715515 2.8622C2.79536 5.26011 5.66642 7.29558 9.2166 6.75146C9.21058 6.74318 9.20489 6.7348 9.19898 6.72651C6.75412 6.29555 4.71657 4.68411 3.13623 2.8621Z" transform="translate(5.02423 11.3705)" fill="#57CEEA"/>
<path d="M10.8972 7.8837C10.8988 6.37133 11.3018 4.92056 12.0531 3.64557L5.37223 0.393494C2.16852 -1.16587 -1.2224 2.20546 0.434724 5.31571C2.53545 9.25838 6.00304 12.9132 11.554 12.2921C11.1173 10.8481 10.8957 9.37443 10.8972 7.8837Z" transform="translate(0.00012207 0.614227)" fill="#5091D7"/>
<path d="M2.61676 5.31517C1.44869 3.12286 2.78867 0.801252 4.80312 0.167588C1.78524 -0.768157 -1.12442 2.38878 0.434718 5.31517C2.52131 9.23134 5.95705 12.8628 11.443 12.3028C7.20506 11.8421 4.41173 8.68402 2.61676 5.31517Z" transform="translate(0 0.614777)" fill="#4B82C8"/>
<path d="M7.27374 -1.51645e-06C6.34552 0.233029 5.35485 0.296698 4.3048 0.135098C3.1552 1.7278 1.71661 3.25642 -1.80244e-07 4.70036C2.24764 5.27595 4.53494 4.49829 6.45468 3.37516C7.76934 2.60609 7.94273 1.06577 7.27374 -1.51645e-06Z" transform="translate(35.4524 17.8805)" fill="#9DE7F9"/>
<path d="M4.30481 0.0198773C3.1552 1.61258 1.71661 3.1412 -1.80244e-07 4.58514C0.773295 4.78318 1.55123 4.82096 2.31736 4.7397C4.08638 3.24255 5.5583 1.65513 6.71898 -8.34048e-07C5.95338 0.132095 5.14855 0.149799 4.30481 0.0198773Z" transform="translate(35.4524 17.9958)" fill="#6EDCF9"/>
<path d="M9.03317 -1.01097e-07C7.30433 1.10997 5.21173 1.70896 2.68955 1.42686C2.13605 3.2586 1.23377 5.04157 -3.86237e-07 6.75126C3.55081 7.2961 6.4224 5.26042 8.50245 2.86221C9.2709 1.97636 9.37299 0.906034 9.03317 -1.01097e-07Z" transform="translate(39.758 11.3704)" fill="#6EDCF9"/>
<path d="M2.68955 3.9175e-07C2.13605 1.83174 1.23377 3.61471 -3.86237e-07 5.3244C0.811791 5.44894 1.58762 5.43734 2.32716 5.31871C3.54016 3.6144 4.42377 1.83785 4.96272 0.0136658C4.24669 0.0897553 3.48995 0.0895478 2.68955 3.9175e-07Z" transform="translate(39.758 12.7972)" fill="#57CEEA"/>
<path d="M6.68734 0.393495L-3.60488e-07 3.64867C0.75874 4.93174 1.16405 6.39307 1.16226 7.916C1.16079 9.39617 0.939618 10.859 0.506354 12.2922C6.05674 12.9127 9.52423 9.25818 11.6247 5.31571C13.282 2.20546 9.89095 -1.16587 6.68734 0.393495Z" transform="translate(41.9405 0.614105)" fill="#5091D7"/>
<path d="M1.69235 6.31855e-08L-3.60488e-07 0.823733C0.75874 2.1068 1.16395 3.56813 1.16226 5.09106C1.16079 6.57123 0.939724 8.03401 0.506354 9.46729C1.29463 9.55539 2.04071 9.55715 2.74703 9.48416C3.75289 6.17049 3.81047 2.77815 1.69235 6.31855e-08Z" transform="translate(41.9405 3.43906)" fill="#4B82C8"/>
<path d="M15.7488 27.9075C15.5887 27.8395 11.7834 26.2058 7.93272 23.0383C2.73776 18.7651 -0.00537085 13.7367 8.04974e-06 8.49666C0.00475413 3.82207 3.85182 1.01097e-07 8.67469 1.01097e-07C11.7465 0.00279522 14.5985 1.6161 16.148 4.21888C16.1796 4.24931 16.2042 4.26401 16.2166 4.26929C16.3257 4.22281 18.5113 0.0151141 23.759 0.0151141C23.7621 0.0151141 23.7648 0.0151141 23.7679 0.0151141C28.557 0.0195656 32.4291 3.82777 32.4238 8.52906C32.4184 13.7691 29.665 18.792 24.4613 23.0549C20.6042 26.2146 16.7956 27.8408 16.6354 27.9085C16.3523 28.0279 16.0314 28.0276 15.7488 27.9075Z" transform="translate(10.7883 0.00112915)" fill="#E886B7"/>
<path d="M2.22286 8.49792C2.22729 4.12666 5.56115 0.598802 9.77842 0.0723868C4.60382 -0.588712 0.00517601 3.36225 8.04974e-06 8.49792C-0.00537085 13.7379 2.73776 18.7664 7.93272 23.0396C11.7834 26.207 15.5887 27.8408 15.7488 27.9088C16.2991 28.1426 16.715 27.8855 17.306 27.6038C9.61073 23.9202 2.21411 17.0615 2.22286 8.49792Z" transform="translate(10.7883)" fill="#FF6288"/>
<path d="M6.42821 -2.78016e-07C2.88004 -2.78016e-07 0.00348703 2.81541 6.56501e-06 6.30269C-0.0102239 16.326 11.5317 22.3403 13.9572 23.4927C15.0438 22.9803 17.9587 21.5008 20.8327 19.1374C25.5498 15.2585 27.9439 10.9496 27.9486 6.33033C27.9525 2.84202 25.0782 0.015011 21.5215 0.015011C19.2153 0.015011 17.0741 1.23948 15.932 3.21201C15.8897 3.2851 15.8399 3.35177 15.7841 3.4115C14.9309 4.39538 13.8208 4.27074 13.9778 4.27074C13.2849 4.27033 12.6414 3.95996 12.1601 3.39545C12.1086 3.33841 12.063 3.27578 12.0239 3.20818C10.9028 1.26215 8.77773 -2.78016e-07 6.42821 -2.78016e-07Z" transform="translate(13.0258 2.19739)" fill="#FF6288"/>
<path d="M2.18194 6.3044C2.1851 3.15906 4.51522 0.595521 7.51802 0.0937446C3.60144 -0.571391 0.00401437 2.38688 6.56501e-06 6.3044C-0.0102239 16.3277 11.5317 22.3421 13.9572 23.4945C14.2222 23.3696 14.5966 23.1865 15.0522 22.9477C11.3419 20.9877 2.17276 15.2388 2.18194 6.3044Z" transform="translate(13.0258 2.19568)" fill="#E44670"/>
</svg>
