<svg width="16" height="20" viewBox="0 0 16 20" fill="none" xmlns="http://www.w3.org/2000/svg">
<path d="M11.3375 11.7337L11.2883 11.7106C11.1707 11.6551 11.0523 11.6027 10.9315 11.5536C10.7998 11.4988 10.6662 11.4481 10.5306 11.4007C10.4236 11.3642 10.3157 11.3301 10.2067 11.2968C10.0407 11.2469 9.87302 11.2019 9.70036 11.1621C9.64175 11.1495 9.58199 11.1374 9.52259 11.1264L9.48198 11.1182C9.38003 11.0975 9.27765 11.0793 9.17411 11.0634L9.14445 11.0586L9.14135 11.0578L9.11168 11.0537C9.02571 11.0403 8.94017 11.0278 8.85105 11.0172L8.54786 10.9913C8.17512 10.9657 7.79101 10.9665 7.42259 10.9945L7.31517 11.0038L7.26513 11.0079L7.13971 11.0196C7.02444 11.0322 6.90997 11.0489 6.79549 11.0679L6.76187 11.0728C6.68374 11.0862 6.60556 11.1012 6.5286 11.1162C6.44306 11.1321 6.35861 11.1495 6.27423 11.1685C6.11093 11.2067 5.94873 11.2501 5.79169 11.2976C5.66664 11.3349 5.54322 11.3759 5.42716 11.4173L5.34667 11.4473C5.10051 11.5378 4.85593 11.6416 4.61913 11.7556L4.55584 11.7869L4.55468 11.7885C1.78563 13.1647 0 16.0967 0 19.2783C0 19.3513 0.0046813 19.4231 0.00899779 19.4953L0.0297291 20H15.9695L15.991 19.501C15.9957 19.4271 16 19.3537 16 19.2783C16 16.046 14.171 13.088 11.3375 11.7337ZM0.78171 19.1886C0.81533 16.332 2.44192 13.7115 4.92104 12.5046L5.00074 12.4721L5.0101 12.4628C5.20428 12.3707 5.40473 12.2867 5.60791 12.2125L5.67235 12.1885C5.78294 12.1488 5.8931 12.1123 6.00758 12.0786C6.1502 12.0351 6.29557 11.9962 6.44129 11.9622C6.51668 11.9456 6.59213 11.9297 6.66988 11.9147C6.73159 11.903 6.79293 11.8908 6.85507 11.8806L6.88553 11.8749C6.99727 11.8567 7.10944 11.84 7.22118 11.8275L7.4767 11.8044C7.81114 11.7788 8.13117 11.7751 8.51874 11.8044L8.76721 11.8259C8.82855 11.8332 8.88989 11.8417 8.96455 11.8526L9.05404 11.866C9.14742 11.8802 9.24081 11.8968 9.33455 11.9151L9.37833 11.9237C9.4311 11.9338 9.48344 11.9444 9.53305 11.9553C9.68699 11.9902 9.83818 12.0316 9.98823 12.0766C10.0874 12.1067 10.1859 12.1375 10.2821 12.1707C10.4039 12.2129 10.5243 12.2588 10.6435 12.3079C10.758 12.3545 10.8709 12.4044 10.9826 12.4576L11.0021 12.4669C13.5375 13.6747 15.184 16.3037 15.2176 19.1879L0.78171 19.1886ZM6.06862 9.94862C6.12722 9.97418 6.18778 9.99647 6.24833 10.0188L6.37533 10.0667C6.42415 10.0861 6.47339 10.1052 6.52343 10.1215C6.98918 10.2736 7.4764 10.3519 7.97182 10.356L8.01128 10.3568C8.18126 10.3568 8.35161 10.3475 8.51491 10.33C8.57114 10.3243 8.62586 10.315 8.68094 10.3053L8.80326 10.2862C8.87202 10.2769 8.94078 10.2663 9.0127 10.2518C9.06195 10.2412 9.10961 10.2278 9.15727 10.2144L9.2909 10.1792C9.35693 10.1626 9.42295 10.1459 9.48825 10.1248C9.52886 10.1114 9.56874 10.096 9.6082 10.0806L9.71562 10.0404C9.79222 10.0128 9.86956 9.98441 9.94695 9.95076C9.97704 9.93738 10.0063 9.9228 10.0352 9.90815L10.07 9.89029C10.1759 9.84117 10.2814 9.79086 10.3861 9.73247L10.454 9.6903C10.5713 9.6213 10.6881 9.5499 10.8065 9.46595C10.8678 9.42296 10.9264 9.37467 10.9842 9.32681L11.1843 9.16534C12.3346 8.17664 12.9957 6.7258 12.9957 5.22104L12.9981 5.17805C12.9981 2.32269 10.7608 0 8.01091 0C5.38606 0 3.20229 2.13117 3.03935 4.85187L3.03504 4.91923C3.02878 5.00483 3.02373 5.09043 3.02373 5.17805C3.02294 7.26364 4.21818 9.13598 6.06862 9.94862ZM3.81413 4.97548L3.81881 4.90244C3.95633 2.60815 5.79741 0.811307 8.01049 0.811307C10.3298 0.811307 12.2162 2.77007 12.2182 5.14099L12.2158 5.1836C12.2143 6.48269 11.6563 7.7059 10.6815 8.54612L10.4959 8.69302C10.4545 8.72793 10.4126 8.76278 10.3607 8.80015C10.2669 8.8663 10.1676 8.9259 10.0668 8.98517L10.011 9.02046C9.92658 9.06755 9.83788 9.10928 9.74565 9.15189L9.64212 9.20384C9.58272 9.22941 9.52022 9.25169 9.45846 9.27404L9.32951 9.32233C9.30452 9.33205 9.27911 9.3426 9.25449 9.3503C9.20646 9.3657 9.15721 9.37751 9.10833 9.39007L8.95245 9.43148C8.91883 9.44082 8.88564 9.45054 8.85597 9.45705C8.80399 9.46759 8.75086 9.47491 8.69815 9.48261L8.54968 9.50572C8.51375 9.51222 8.47776 9.51872 8.43751 9.52276C8.30741 9.53696 8.17652 9.54467 8.04368 9.54587L8.00696 9.54549C7.57914 9.54511 7.15832 9.47895 6.75664 9.34834C6.72186 9.33698 6.68788 9.32277 6.65389 9.30939L6.50701 9.25384C6.46129 9.23717 6.416 9.22095 6.37223 9.20189C4.81246 8.5169 3.80434 6.93702 3.80434 5.1783C3.80434 5.10975 3.80945 5.04239 3.81413 4.97548Z" fill="#303030"/>
</svg>
