<svg width="16" height="21" viewBox="0 0 16 21" fill="none" xmlns="http://www.w3.org/2000/svg">
<path d="M11.3375 11.9328L11.2883 11.9093C11.1707 11.8528 11.0523 11.7996 10.9315 11.7497C10.7998 11.694 10.6662 11.6424 10.5306 11.5941C10.4236 11.557 10.3157 11.5224 10.2067 11.4885C10.0407 11.4378 9.87302 11.392 9.70036 11.3515C9.64175 11.3387 9.58199 11.3264 9.52259 11.3152L9.48198 11.3069C9.38003 11.2858 9.27765 11.2673 9.17411 11.2512L9.14445 11.2462L9.14135 11.2454L9.11168 11.2413C9.02571 11.2277 8.94017 11.2149 8.85105 11.2042L8.54786 11.1778C8.17512 11.1518 7.79101 11.1526 7.42259 11.1811L7.31517 11.1906L7.26513 11.1947L7.13971 11.2066C7.02444 11.2194 6.90997 11.2364 6.79549 11.2557L6.76187 11.2607C6.68374 11.2743 6.60556 11.2896 6.5286 11.3048C6.44306 11.321 6.35861 11.3387 6.27423 11.3581C6.11093 11.3968 5.94873 11.441 5.79169 11.4893C5.66664 11.5272 5.54322 11.5689 5.42716 11.611L5.34667 11.6416C5.10051 11.7336 4.85593 11.8392 4.61913 11.9551L4.55584 11.9869L4.55468 11.9886C1.78563 13.3881 0 16.3699 0 19.6054C0 19.6797 0.0046813 19.7527 0.00899779 19.8261L0.0297291 20.3394H15.9695L15.991 19.8319C15.9957 19.7568 16 19.6821 16 19.6054C16 16.3183 14.171 13.3101 11.3375 11.9328ZM0.78171 19.5142C0.81533 16.6092 2.44192 13.9442 4.92104 12.7168L5.00074 12.6838L5.0101 12.6743C5.20428 12.5806 5.40473 12.4952 5.60791 12.4197L5.67235 12.3954C5.78294 12.3549 5.8931 12.3178 6.00758 12.2836C6.1502 12.2394 6.29557 12.1998 6.44129 12.1652C6.51668 12.1483 6.59213 12.1322 6.66988 12.1169C6.73159 12.105 6.79293 12.0926 6.85507 12.0822L6.88553 12.0764C6.99727 12.0579 7.10944 12.0409 7.22118 12.0282L7.4767 12.0047C7.81114 11.9787 8.13117 11.975 8.51874 12.0047L8.76721 12.0266C8.82855 12.034 8.88989 12.0427 8.96455 12.0538L9.05404 12.0674C9.14742 12.0818 9.24081 12.0987 9.33455 12.1173L9.37833 12.126C9.4311 12.1363 9.48344 12.1471 9.53305 12.1582C9.68699 12.1937 9.83818 12.2357 9.98823 12.2816C10.0874 12.3121 10.1859 12.3434 10.2821 12.3773C10.4039 12.4202 10.5243 12.4668 10.6435 12.5167C10.758 12.5642 10.8709 12.6149 10.9826 12.669L11.0021 12.6785C13.5375 13.9068 15.184 16.5804 15.2176 19.5135L0.78171 19.5142ZM6.06862 10.1174C6.12722 10.1434 6.18778 10.1661 6.24833 10.1888L6.37533 10.2375C6.42415 10.2573 6.47339 10.2767 6.52343 10.2932C6.98918 10.4479 7.4764 10.5275 7.97182 10.5317L8.01128 10.5325C8.18126 10.5325 8.35161 10.523 8.51491 10.5053C8.57114 10.4995 8.62586 10.49 8.68094 10.4802L8.80326 10.4608C8.87202 10.4513 8.94078 10.4405 9.0127 10.4257C9.06195 10.415 9.10961 10.4014 9.15727 10.3878L9.2909 10.3519C9.35693 10.335 9.42295 10.3181 9.48825 10.2966C9.52886 10.283 9.56874 10.2673 9.6082 10.2516L9.71562 10.2108C9.79222 10.1827 9.86956 10.1538 9.94695 10.1196C9.97704 10.106 10.0063 10.0912 10.0352 10.0763L10.07 10.0581C10.1759 10.0082 10.2814 9.95701 10.3861 9.89763L10.454 9.85474C10.5713 9.78457 10.6881 9.71196 10.8065 9.62658C10.8678 9.58286 10.9264 9.53375 10.9842 9.48509L11.1843 9.32087C12.3346 8.3154 12.9957 6.83993 12.9957 5.30964L12.9981 5.26592C12.9981 2.36211 10.7608 0 8.01091 0C5.38606 0 3.20229 2.16733 3.03935 4.93421L3.03504 5.00271C3.02878 5.08976 3.02373 5.17681 3.02373 5.26592C3.02294 7.3869 4.21818 9.29102 6.06862 10.1174ZM3.81413 5.05991L3.81881 4.98563C3.95633 2.65241 5.79741 0.825075 8.01049 0.825075C10.3298 0.825075 12.2162 2.81708 12.2182 5.22824L12.2158 5.27157C12.2143 6.5927 11.6563 7.83667 10.6815 8.69115L10.4959 8.84054C10.4545 8.87604 10.4126 8.91148 10.3607 8.94948C10.2669 9.01676 10.1676 9.07737 10.0668 9.13765L10.011 9.17353C9.92658 9.22143 9.83788 9.26386 9.74565 9.30719L9.64212 9.36003C9.58272 9.38603 9.52022 9.40869 9.45846 9.43142L9.32951 9.48053C9.30452 9.49042 9.27911 9.50114 9.25449 9.50897C9.20646 9.52463 9.15721 9.53664 9.10833 9.54941L8.95245 9.59153C8.91883 9.60103 8.88564 9.61092 8.85597 9.61753C8.80399 9.62825 8.75086 9.6357 8.69815 9.64353L8.54968 9.66703C8.51375 9.67364 8.47776 9.68025 8.43751 9.68436C8.30741 9.6988 8.17652 9.70664 8.04368 9.70786L8.00696 9.70747C7.57914 9.70708 7.15832 9.63981 6.75664 9.50698C6.72186 9.49542 6.68788 9.48098 6.65389 9.46737L6.50701 9.41088C6.46129 9.39393 6.416 9.37743 6.37223 9.35804C4.81246 8.66143 3.80434 7.05474 3.80434 5.26618C3.80434 5.19646 3.80945 5.12796 3.81413 5.05991Z" transform="translate(0 0.39032)" fill="white"/>
</svg>
