<svg width="39" height="48" viewBox="0 0 39 48" fill="none" xmlns="http://www.w3.org/2000/svg">
<path d="M38.6426 22.0358C38.2879 21.4507 37.6941 21.1289 36.9682 21.1289C36.9649 21.1289 36.9616 21.1289 36.9584 21.1289C35.5894 21.1338 33.9421 21.6709 32.6594 22.5299C31.4761 23.3223 29.7606 24.7907 28.3129 27.2945C28.0411 27.7642 27.5952 28.0828 27.1181 28.1583C27.1164 28.0494 27.1172 27.9251 27.1172 27.8073C27.1172 27.5562 27.1181 27.2571 27.1074 26.9272V8.93915C27.1074 7.14645 25.6342 5.68855 23.8226 5.68855C22.0111 5.68855 20.5379 7.14645 20.5379 8.93915V21.5352C20.5379 21.7587 20.3531 21.9416 20.1273 21.9416C19.9015 21.9416 19.7167 21.7587 19.7167 21.5352V3.2506C19.7167 1.45789 18.2435 0 16.432 0C14.6204 0 13.1472 1.45789 13.1472 3.2506V21.5352C13.1472 21.7587 12.9624 21.9416 12.7366 21.9416C12.5108 21.9416 12.326 21.7587 12.326 21.5352V6.90753C12.326 5.33911 11.0368 4.06325 9.45187 4.06325C7.86697 4.06325 6.57771 5.33911 6.57771 6.90753V23.1605C6.57771 23.384 6.39294 23.5669 6.16712 23.5669C5.94129 23.5669 5.75652 23.384 5.75652 23.1605V13.0024C5.75652 11.434 4.46726 10.1581 2.87415 10.1581C1.28926 10.1581 1.47231e-07 11.434 1.47231e-07 13.0024L0.0016424 35.104C0.796552 46.4673 7.83987 48 14.6253 48C20.2472 48 25.2967 45.2402 27.7865 40.8292C28.1068 40.3172 28.9731 38.969 30.0004 37.3722C32.5691 33.3788 34.7206 30.025 35.0384 29.4285C35.7471 28.1006 36.5379 27.0629 37.3246 26.4274C38.0366 25.852 38.4718 25.1182 38.8257 24.4738C39.0089 24.1381 39.1682 22.9054 38.6426 22.0358ZM37.3386 23.7773C37.0101 24.3698 36.7005 24.8338 36.2858 25.1686C35.3168 25.952 34.4094 27.1295 33.5866 28.6703C33.2737 29.2578 30.471 33.6161 28.6159 36.5002C27.5829 38.106 26.7124 39.4599 26.3716 40.006C24.1536 43.9343 19.6527 46.3755 14.6253 46.3755C5.96839 46.3755 2.20653 43.077 1.64237 35.0488V13.0024C1.64237 12.3303 2.19503 11.7834 2.88237 11.7834C3.56149 11.7834 4.11415 12.3303 4.11415 13.0024V23.1605C4.11415 24.2812 5.0347 25.1922 6.16712 25.1922C7.29953 25.1922 8.22008 24.2812 8.22008 23.1605V6.90753C8.22008 6.23547 8.77274 5.68855 9.45187 5.68855C10.131 5.68855 10.6836 6.23547 10.6836 6.90753V21.5352C10.6836 22.6559 11.6042 23.5669 12.7366 23.5669C13.869 23.5669 14.7896 22.6559 14.7896 21.5352V3.2506C14.7896 2.35425 15.5262 1.6253 16.432 1.6253C17.3377 1.6253 18.0743 2.35425 18.0743 3.2506V21.5352C18.0743 22.6559 18.9949 23.5669 20.1273 23.5669C21.2597 23.5669 22.1803 22.6559 22.1803 21.5352V8.93915C22.1803 8.0428 22.9169 7.31385 23.8226 7.31385C24.7284 7.31385 25.465 8.0428 25.465 8.93915V26.9524C25.4757 27.2864 25.4749 27.5683 25.4749 27.8056C25.4732 28.533 25.4724 29.0579 25.8772 29.4504C26.2164 29.7779 26.6557 29.7983 26.9661 29.8015C28.0838 29.7763 29.1464 29.1246 29.7385 28.1014C31.0286 25.8683 32.5387 24.5713 33.5792 23.8765C34.5909 23.1987 35.9204 22.7583 36.9649 22.7542C36.9657 22.7542 36.9674 22.7542 36.9682 22.7542C37.1439 22.7542 37.1842 22.8054 37.208 22.8355C37.3698 23.0386 37.3772 23.5498 37.3386 23.7773Z" fill="#008CC8"/>
</svg>
