<svg width="9" height="13" viewBox="0 0 9 13" fill="none" xmlns="http://www.w3.org/2000/svg">
<path d="M4.50094 0C2.01534 0 -8.89772e-08 1.96408 -8.89772e-08 4.38698C-8.89772e-08 5.62648 1.23923 7.8471 1.23923 7.8471L4.33503 13L7.56515 7.90727C7.56515 7.90727 9 5.78852 9 4.38698C9.00038 1.96408 6.98541 0 4.50094 0ZM4.47987 6.80323C3.05631 6.80323 1.90323 5.67188 1.90323 4.27366C1.90323 2.87728 3.05593 1.74667 4.47987 1.74667C5.90269 1.74667 7.05689 2.87728 7.05689 4.27366C7.05689 5.67188 5.90269 6.80323 4.47987 6.80323Z" fill="#008CC8"/>
</svg>
