<svg width="44" height="48" viewBox="0 0 44 48" fill="none" xmlns="http://www.w3.org/2000/svg">
<path d="M1.44352 19.4782C1.44352 22.8369 2.60875 26.239 4.64047 28.8122C6.77321 31.5133 9.5552 33.0009 12.4739 33.0009C15.392 33.0009 18.1705 31.5142 20.2976 28.8146C22.3226 26.2446 23.4839 22.8438 23.4839 19.4841V16.4778C25.638 9.48445 24.8386 3.57958 24.1379 1.95094C24.1368 1.9485 24.1354 1.94616 24.1343 1.94372C24.1276 1.92872 24.1203 1.91419 24.1127 1.89966C24.1085 1.89179 24.1047 1.88372 24.1003 1.87613C24.0931 1.86348 24.0853 1.85138 24.0774 1.8392C24.0716 1.8302 24.0659 1.82111 24.0598 1.81239C24.0531 1.80292 24.0457 1.79402 24.0387 1.78492C24.0305 1.77452 24.0225 1.76392 24.0138 1.75399C24.0081 1.74743 24.0019 1.74133 23.996 1.73496C23.9853 1.72352 23.9747 1.71218 23.9634 1.70159C23.9583 1.69681 23.9529 1.6924 23.9476 1.68781C23.935 1.67665 23.9225 1.66559 23.9093 1.65528C23.9037 1.65097 23.8978 1.64712 23.892 1.643C23.8787 1.63334 23.8654 1.62369 23.8516 1.61497C23.8445 1.61047 23.8369 1.60654 23.8297 1.60232C23.8169 1.59482 23.804 1.58722 23.7908 1.58057C23.7816 1.57588 23.7719 1.57194 23.7625 1.56763C23.7507 1.56229 23.739 1.55676 23.727 1.55207C23.7162 1.54785 23.7051 1.54448 23.6941 1.54082C23.6828 1.53698 23.6716 1.53304 23.66 1.52976C23.649 1.52667 23.6378 1.52442 23.6267 1.52189C23.6146 1.51908 23.6025 1.51608 23.5902 1.51392C23.5801 1.51214 23.5699 1.5112 23.5597 1.50989C23.5458 1.50801 23.532 1.50614 23.5179 1.50511C23.5092 1.50455 23.5006 1.50455 23.4919 1.50417C23.476 1.50361 23.4601 1.50323 23.4441 1.5037C23.4365 1.50389 23.4288 1.50473 23.4211 1.5052C23.4043 1.50633 23.3875 1.50764 23.3706 1.50989C23.3681 1.51026 23.3656 1.51017 23.363 1.51064C21.5241 1.7793 19.2977 1.32203 16.9405 0.838054C12.9881 0.026452 8.9042 -0.810084 5.71101 1.51861C5.66298 1.50848 5.6133 1.50314 5.56233 1.50314C2.28728 1.50314 2.90925e-07 4.2786 2.90925e-07 8.25261C2.90925e-07 11.3247 1.26395 17.0567 1.44352 17.8554V19.4782ZM19.1557 27.8735C17.3125 30.2128 14.9395 31.5011 12.4739 31.5011C10.0072 31.5011 7.63045 30.2115 5.78159 27.87C3.95675 25.5589 2.91014 22.5002 2.91014 19.4783V18.6241C2.91014 15.9527 4.39142 12.3453 4.89502 11.1963C9.96182 10.5875 13.9981 11.1958 16.5155 11.8247C18.7236 12.3764 20.1725 13.0371 20.6949 13.2965L22.0174 16.5146V19.4843C22.0174 22.5076 20.9744 25.5655 19.1557 27.8735ZM5.56233 3.00298C5.6331 3.00298 5.70138 2.9922 5.76619 2.97298C5.98087 3.03588 6.22066 2.99895 6.41215 2.85018C9.10467 0.758656 12.9413 1.54664 16.6518 2.30855C18.5985 2.70836 20.4601 3.09063 22.1797 3.09063C22.4446 3.09063 22.7058 3.08041 22.9638 3.06091C23.4149 4.72517 23.8425 8.92173 22.6129 14.0923L21.9428 12.4617C21.8789 12.3063 21.7657 12.1774 21.6213 12.0959C21.3507 11.9431 14.8735 8.36848 4.30645 9.75864C4.30462 9.75883 4.30297 9.75939 4.30113 9.75958C4.28738 9.76155 4.27382 9.76445 4.26025 9.76717C4.24962 9.76923 4.2388 9.77102 4.22835 9.77355C4.21973 9.77561 4.2113 9.77861 4.20278 9.78105C4.10974 9.80757 4.02504 9.85173 3.9518 9.90985C3.90441 9.94725 3.86096 9.99055 3.82301 10.0401C3.82191 10.0416 3.82063 10.043 3.81944 10.0444C3.81174 10.0546 3.80487 10.0656 3.79753 10.0764C3.79084 10.0862 3.78397 10.0958 3.77773 10.1059C3.77306 10.1135 3.76902 10.1218 3.76453 10.1297C3.75665 10.1436 3.74877 10.1577 3.7418 10.1722C3.74116 10.1736 3.74033 10.1748 3.73969 10.1763C3.68295 10.2964 2.85294 12.0682 2.20698 14.2348C1.84171 12.2531 1.46662 9.83298 1.46662 8.25261C1.46662 4.62618 3.52373 3.00298 5.56233 3.00298Z" transform="translate(9.53345)" fill="#008CC8"/>
<path d="M42.5978 7.3152C41.6091 5.8342 40.2303 4.80606 38.6105 4.34205C38.5947 4.33755 38.5787 4.33361 38.5627 4.33014L32.7126 3.07881L31.1379 0.636969C31.1299 0.624408 31.1214 0.611941 31.1125 0.599848C30.8739 0.274477 30.5107 0.0598121 30.1158 0.010786C29.7212 -0.0381463 29.3181 0.0813723 29.0103 0.338876C29.0056 0.342813 29.0009 0.346843 28.9963 0.350874L22.0001 6.50969L15.0039 0.350874C14.9992 0.346843 14.9945 0.342813 14.9898 0.338876C14.6821 0.0813723 14.2791 -0.03824 13.8845 0.010786C13.4897 0.0597184 13.1264 0.274477 12.8877 0.599848C12.8788 0.611941 12.8704 0.624314 12.8622 0.636969L11.2875 3.07881L5.43749 4.33014C5.42144 4.33361 5.40549 4.33755 5.38973 4.34205C3.76985 4.80615 2.39105 5.8342 1.40236 7.3152C0.498008 8.66975 -3.21695e-08 10.3047 -3.21695e-08 11.9186V13.7787C-3.21695e-08 15.2784 1.31583 16.4986 2.93333 16.4986H19.7981C19.799 16.4986 19.7999 16.4987 19.8008 16.4987C19.8018 16.4987 19.8028 16.4986 19.8038 16.4986H24.1962C24.1972 16.4986 24.1982 16.4987 24.1992 16.4987C24.2001 16.4987 24.201 16.4986 24.2019 16.4986H41.0667C42.6842 16.4986 44 15.2784 44 13.7787V11.9186C44.0002 10.3047 43.5022 8.66975 42.5978 7.3152ZM29.9383 1.50078L31.375 3.7287L26.3119 10.8482L24.7189 9.21925C24.7187 9.21906 24.7186 9.21887 24.7184 9.21869L23.0774 7.54055L29.9383 1.50078ZM21.2668 12.7489H22.7335C22.7776 12.7489 22.8213 12.7472 22.8648 12.7446L23.3057 14.9989H20.6946L21.1355 12.7446C21.179 12.7472 21.2227 12.7489 21.2668 12.7489ZM23.4668 10.4991C23.4668 10.9126 23.1378 11.249 22.7335 11.249H21.2668C20.8624 11.249 20.5335 10.9126 20.5335 10.4991V10.0597L22.0002 8.55979L23.4669 10.0597V10.4991H23.4668ZM14.062 1.50078L20.9229 7.54046L19.2819 9.21859C19.2817 9.21878 19.2815 9.21897 19.2813 9.21916L17.6884 10.8481L12.6253 3.72861L14.062 1.50078ZM1.46662 13.7787V11.9186C1.46662 9.4926 2.94213 6.61403 5.76252 5.79277L11.4193 4.58277L17.007 12.44C17.1331 12.6173 17.3288 12.7293 17.5427 12.7465C17.5618 12.748 17.581 12.7487 17.6001 12.7487C17.7937 12.7487 17.9805 12.6703 18.1185 12.5291L19.2425 11.3797C19.3625 11.6671 19.5397 11.9236 19.7589 12.135L19.1989 14.9987H2.93333C2.12467 14.9988 1.46662 14.4514 1.46662 13.7787ZM42.5336 13.7787C42.5336 14.4514 41.8756 14.9988 41.0669 14.9988H24.8013L24.2413 12.1351C24.4605 11.9237 24.6377 11.6672 24.7577 11.3798L25.8817 12.5292C26.0197 12.6704 26.2064 12.7488 26.4001 12.7488C26.4192 12.7488 26.4384 12.7481 26.4575 12.7466C26.6714 12.7294 26.8671 12.6174 26.9932 12.4401L32.5809 4.58286L38.2377 5.79286C41.0582 6.61412 42.5336 9.49269 42.5336 11.9187V13.7787Z" transform="translate(0 31.5012)" fill="#008CC8"/>
</svg>
