<svg width="40" height="48" viewBox="0 0 40 48" fill="none" xmlns="http://www.w3.org/2000/svg">
<path d="M12.3795 5.93127C11.9051 2.55008 9.01108 0 5.64809 0C3.48532 0 1.4313 1.06136 0.154209 2.84014C-0.106645 3.20291 -0.0286006 3.71178 0.328111 3.97706C0.683652 4.24139 1.18521 4.16297 1.44559 3.79973C2.42315 2.43948 3.9939 1.6272 5.64786 1.6272C8.21984 1.6272 10.4325 3.5764 10.7953 6.16079C10.8525 6.5667 11.1949 6.85963 11.5866 6.85963C11.6238 6.85963 11.6623 6.85677 11.7005 6.85152C12.1378 6.78789 12.4418 6.37578 12.3795 5.93127Z" transform="translate(14.3514)" fill="#008CC8"/>
<path d="M36.6853 4.46281L34.2854 0.394941C34.141 0.149682 33.8806 3.92784e-07 33.5994 3.92784e-07H31.2995C30.8579 3.92784e-07 30.4996 0.364433 30.4996 0.813478C30.4996 1.26252 30.8579 1.62696 31.2995 1.62696H33.1466L34.5866 4.06763H2.21269L3.65267 1.62696H4.49992C4.94147 1.62696 5.29983 1.26252 5.29983 0.813478C5.29983 0.364433 4.94147 3.92784e-07 4.49992 3.92784e-07H3.19986C2.91862 3.92784e-07 2.65823 0.149682 2.51386 0.394941L0.113905 4.46281C-0.0344515 4.7145 -0.0379669 5.02746 0.103827 5.28249C0.245622 5.53752 0.511398 5.6953 0.799908 5.6953H35.9993C36.2878 5.6953 36.5534 5.53752 36.6954 5.28249C36.8375 5.02746 36.8337 4.71403 36.6853 4.46281Z" transform="translate(1.59998 10.5758)" fill="#008CC8"/>
<path d="M13.2079 2.97861C13.0959 2.79485 12.917 2.66447 12.7103 2.61537L1.80482 0.0214422C1.59834 -0.0278956 1.38084 0.00880991 1.20038 0.122263C1.02038 0.236193 0.891947 0.418052 0.843667 0.628274L0.0212597 4.20348C-0.0795197 4.64085 0.187664 5.07845 0.617969 5.18046C1.04804 5.28295 1.47881 5.01124 1.57912 4.57363L2.21942 1.79093L11.5668 4.01447L10.098 10.401C9.99725 10.8383 10.2644 11.276 10.6947 11.378C10.7564 11.3925 10.8175 11.3994 10.878 11.3994C11.2413 11.3994 11.5701 11.1463 11.6557 10.7714L13.3068 3.59284C13.3555 3.38285 13.3199 3.16166 13.2079 2.97861Z" transform="translate(21.0897 4.55859)" fill="#008CC8"/>
<path d="M15.7035 6.98797L14.9746 0.71825C14.9498 0.503976 14.8422 0.308294 14.6753 0.174819C14.5085 0.0413448 14.2978 -0.0196721 14.0861 0.00559272L0.705895 1.61396C0.267388 1.66687 -0.0461999 2.07111 0.00559598 2.51753L1.22081 12.9745C1.26909 13.3885 1.61432 13.6929 2.01439 13.6929C2.04556 13.6929 2.07767 13.6908 2.10954 13.6872C2.54781 13.6343 2.8614 13.23 2.80984 12.7836L1.68838 3.1339L13.4798 1.71669L14.1145 7.17841C14.1665 7.6246 14.5621 7.9416 15.003 7.89107C15.4415 7.83863 15.7551 7.43416 15.7035 6.98797Z" transform="translate(4.71924 2.47253)" fill="#008CC8"/>
<path d="M16.0533 7.33789L14.4654 0.622695C14.4157 0.413188 14.2861 0.231806 14.1054 0.119068C13.9247 0.0072835 13.7079 -0.027754 13.5005 0.0222989L0.613145 3.1742C0.183544 3.27907 -0.0808264 3.71859 0.0222967 4.15548L0.815875 7.51188C0.918998 7.94925 1.35118 8.21834 1.78055 8.11275C2.21015 8.00788 2.47452 7.56837 2.37139 7.13148L1.76461 4.56591L13.0964 1.79489L14.4973 7.71876C14.5852 8.09178 14.9133 8.34204 15.2744 8.34204C15.3365 8.34204 15.3994 8.33465 15.4624 8.31916C15.892 8.21405 16.1564 7.77478 16.0533 7.33789Z" transform="translate(10.6963 7.81042)" fill="#008CC8"/>
<path d="M38.3989 0.771768C38.3769 0.339406 38.0258 4.50974e-07 37.5997 4.50974e-07H2.40031C1.97422 4.50974e-07 1.62313 0.339168 1.6011 0.771768L0.00105373 32.5005C-0.0101961 32.7231 0.0690215 32.941 0.219956 33.1026C0.371125 33.264 0.580652 33.3557 0.800023 33.3557H39.1993C39.4184 33.3557 39.6282 33.2642 39.7801 33.1026C39.9308 32.941 40.01 32.7234 39.999 32.5005L38.3989 0.771768ZM1.64188 31.7285L3.1599 1.62696H36.8392L38.3572 31.7285H1.64188Z" transform="translate(0 14.6443)" fill="#008CC8"/>
<path d="M2.39996 5.52807e-07C1.07646 5.52807e-07 4.57755e-07 1.09473 4.57755e-07 2.44067C4.57755e-07 3.78662 1.07646 4.88135 2.39996 4.88135C3.72345 4.88135 4.79991 3.78662 4.79991 2.44067C4.79991 1.09473 3.72345 5.52807e-07 2.39996 5.52807e-07ZM2.39996 3.25439C1.95864 3.25439 1.60005 2.88948 1.60005 2.44091C1.60005 1.99234 1.95887 1.62743 2.39996 1.62743C2.84104 1.62743 3.19986 1.99234 3.19986 2.44091C3.19986 2.88948 2.84104 3.25439 2.39996 3.25439Z" transform="translate(23.5995 17.8982)" fill="#008CC8"/>
<path d="M2.39996 5.52807e-07C1.07647 5.52807e-07 -6.15109e-07 1.09473 -6.15109e-07 2.44067C-6.15109e-07 3.78662 1.07647 4.88135 2.39996 4.88135C3.72345 4.88135 4.79991 3.78662 4.79991 2.44067C4.79991 1.09473 3.72345 5.52807e-07 2.39996 5.52807e-07ZM2.39996 3.25439C1.95887 3.25439 1.60005 2.88948 1.60005 2.44091C1.60005 1.99234 1.95887 1.62743 2.39996 1.62743C2.84104 1.62743 3.19986 1.99234 3.19986 2.44091C3.19986 2.88948 2.84104 3.25439 2.39996 3.25439Z" transform="translate(11.5997 17.8982)" fill="#008CC8"/>
<path d="M12.7997 4.36427e-08H12.738C12.2965 4.36427e-08 11.9381 0.364433 11.9381 0.813479C11.9381 0.924549 11.9597 1.03061 11.9998 1.12714V5.28797C11.9998 8.20367 9.66709 10.5762 6.7998 10.5762C3.93251 10.5762 1.59981 8.20391 1.59981 5.28797V0.813717C1.59981 0.364671 1.24146 0.00023826 0.799908 0.00023826C0.358353 0.00023826 2.00268e-07 0.364671 2.00268e-07 0.813717V5.28821C2.00268e-07 9.10128 3.05033 12.2034 6.7998 12.2034C10.5493 12.2034 13.5996 9.10128 13.5996 5.28821V0.813717C13.5996 0.364671 13.2412 4.36427e-08 12.7997 4.36427e-08Z" transform="translate(13.1998 20.3389)" fill="#008CC8"/>
</svg>
