<svg width="25" height="25" viewBox="0 0 25 25" fill="none" xmlns="http://www.w3.org/2000/svg">
<circle cx="12.5" cy="12.5" r="12.5" fill="#008CC8"/>
<path d="M11.8907 6.88721C11.7818 6.70386 11.5988 6.60278 11.3719 6.60278C10.9507 6.60431 10.4438 6.77217 10.0492 7.0406C9.68506 7.2882 9.15722 7.7471 8.71175 8.52953C8.62812 8.67631 8.49091 8.77586 8.34411 8.79948C8.34361 8.76545 8.34386 8.72659 8.34386 8.69003C8.34386 8.6113 8.34411 8.51784 8.34083 8.41474V2.79349C8.34083 2.23326 7.88752 1.77767 7.33012 1.77767C6.77272 1.77767 6.31942 2.23326 6.31942 2.79349V6.72976C6.31942 6.7996 6.26257 6.85674 6.19308 6.85674C6.1236 6.85674 6.06674 6.7996 6.06674 6.72976V1.01581C6.06674 0.455592 5.61344 0 5.05604 0C4.49864 0 4.04534 0.455592 4.04534 1.01581V6.72976C4.04534 6.7996 3.98849 6.85674 3.919 6.85674C3.84951 6.85674 3.79266 6.7996 3.79266 6.72976V2.1586C3.79266 1.66847 3.39596 1.26977 2.9083 1.26977C2.42063 1.26977 2.02393 1.66847 2.02393 2.1586V7.23767C2.02393 7.3075 1.96708 7.36464 1.89759 7.36464C1.82811 7.36464 1.77126 7.3075 1.77126 7.23767V4.06325C1.77126 3.57312 1.37456 3.17441 0.884365 3.17441C0.396701 3.17441 4.53024e-08 3.57312 4.53024e-08 4.06325L0.00050536 10.97C0.245095 14.521 2.41229 15 4.50015 15C6.22997 15 7.78368 14.1376 8.54979 12.7591C8.64833 12.5991 8.9149 12.1781 9.231 11.6788C10.0214 10.4311 10.6834 9.38281 10.7812 9.19641C10.9992 8.78145 11.2426 8.45715 11.4846 8.25856C11.7037 8.07876 11.8376 7.84944 11.9465 7.64805C12.0026 7.54343 12.0516 7.15869 11.8907 6.88721Z" transform="translate(7 5)" fill="white"/>
<path d="M2.5 5L2.15 4.61957C0.85 3.36957 0 2.52717 0 1.49457C0 0.652174 0.6 -4.06511e-09 1.375 -4.06511e-09C1.8 -4.06511e-09 2.225 0.217391 2.5 0.570652C2.775 0.217391 3.2 -4.06511e-09 3.625 -4.06511e-09C4.4 -4.06511e-09 5 0.652174 5 1.49457C5 2.52717 4.15 3.36957 2.85 4.61957L2.5 5Z" transform="translate(9 13)" fill="#008CC8"/>
</svg>
