<svg width="25" height="25" viewBox="0 0 25 25" fill="none" xmlns="http://www.w3.org/2000/svg">
<circle cx="12.5" cy="12.5" r="12.5" fill="#008CC8"/>
<path d="M7.76195 4.66907C7.91996 4.51109 7.91996 4.2549 7.76195 4.0969L7.15477 3.48971C7.01745 3.35239 6.80185 3.33203 6.64126 3.44116L5.36458 4.30888L6.22703 3.02357C6.33474 2.86305 6.31386 2.64873 6.17713 2.51205L4.86005 1.19497C4.73846 1.07338 4.55331 1.0419 4.39844 1.11653L4.1707 1.22618L4.27976 0.984232C4.34889 0.830892 4.31593 0.650821 4.197 0.531871L3.78356 0.118485C3.62558 -0.039495 3.3694 -0.039495 3.21139 0.118485L1.05363e-07 3.32984L4.55059 7.88043L7.76195 4.66907Z" transform="translate(11.1195 7)" fill="white"/>
<path d="M3.52158 -1.61337e-07L2.59194 0.929646C2.51606 1.00552 2.47342 1.10842 2.47342 1.21572C2.47342 1.32302 2.51603 1.42595 2.59194 1.50179L3.47379 2.38364C3.64369 2.55355 3.72609 2.78802 3.69987 3.02692C3.67368 3.26566 3.54227 3.47675 3.33935 3.60611C0.748126 5.25787 0.506584 5.49944 0.42723 5.57882C-0.14241 6.14843 -0.14241 7.07527 0.42723 7.64494C0.997436 8.21514 1.92433 8.21401 2.49335 7.64494C2.57276 7.56556 2.81438 7.32391 4.46604 4.73282C4.59508 4.53039 4.80608 4.39927 5.04493 4.37303C5.28453 4.34689 5.51898 4.42889 5.68847 4.59836L6.57032 5.48021C6.7283 5.63819 6.98452 5.63819 7.1425 5.48021L8.07217 4.55053L3.52158 -1.61337e-07ZM1.88946 6.99144C1.66612 7.21478 1.30404 7.21478 1.08073 6.99144C0.857393 6.76811 0.857393 6.40602 1.08073 6.18271C1.30406 5.95938 1.66615 5.95938 1.88946 6.18271C2.11279 6.40602 2.11279 6.76811 1.88946 6.99144Z" transform="translate(7 10.9279)" fill="white"/>
</svg>
