<svg width="25" height="25" viewBox="0 0 25 25" fill="none" xmlns="http://www.w3.org/2000/svg">
<circle cx="12.5" cy="12.5" r="12.5" fill="#008CC8"/>
<path d="M11.5391 1.27489e-08L11.3266 0.210132V1.27489e-08H10.2793C9.80709 0.719796 8.8102 1.21735 7.65282 1.21735C6.49585 1.21735 5.49897 0.719796 5.02678 1.27489e-08H3.9795V0.210132L3.76648 1.27489e-08L0 3.71762L2.06026 5.75169L3.9795 3.85757V13.329H11.3257V3.85799L13.2454 5.7521L15.3052 3.71762L11.5391 1.27489e-08Z" transform="translate(4.84741 6.83545)" fill="white"/>
<path d="M12.1731 15H4.82689C4.35937 15 3.97992 14.6257 3.97992 14.1645V6.71086L3.50646 7.17791C3.34766 7.33499 3.1321 7.42272 2.90723 7.42272C2.68278 7.42272 2.46681 7.33457 2.308 7.17791L0.247739 5.14385C-0.0825798 4.81758 -0.0825798 4.28912 0.247739 3.96243L4.01507 0.244806C4.19886 0.0630814 4.46439 -0.0250654 4.72018 0.00668415C4.75532 0.00250657 4.7909 1.27489e-08 4.82689 1.27489e-08H5.87417C6.1613 1.27489e-08 6.42936 0.143709 6.58521 0.381413C6.91849 0.889406 7.67018 1.21735 8.50021 1.21735C9.33024 1.21735 10.0824 0.889406 10.4156 0.381413C10.5715 0.143709 10.8391 1.27489e-08 11.1267 1.27489e-08H12.174C12.2099 1.27489e-08 12.2455 0.00208881 12.2807 0.00668415C12.3154 0.00250657 12.3505 1.27489e-08 12.3861 1.27489e-08C12.3865 1.27489e-08 12.3865 1.27489e-08 12.3865 1.27489e-08C12.611 1.27489e-08 12.8265 0.0881468 12.9858 0.244806L16.7523 3.96201C17.0826 4.28828 17.0826 4.81674 16.7523 5.14343L14.6924 7.17791C14.5336 7.33457 14.3181 7.42272 14.0936 7.42272C14.0932 7.42272 14.0932 7.42272 14.0932 7.42272C13.8687 7.42313 13.6532 7.33499 13.4944 7.17833L13.0205 6.71044V14.1645C13.0201 14.6261 12.6411 15 12.1731 15ZM5.67387 13.329H11.3261V4.69351C11.3261 4.35554 11.5324 4.05099 11.8487 3.92149C12.1655 3.79157 12.5293 3.86342 12.7719 4.1028L14.0923 5.40536L14.9554 4.55314L12.2455 1.87824C12.1104 1.89035 11.9775 1.86946 11.85 1.81766C11.7615 1.78174 11.6814 1.7316 11.612 1.67103H11.5391C10.84 2.43135 9.71943 2.88838 8.50021 2.88838C7.28099 2.88838 6.16087 2.43135 5.46128 1.67103H5.38844C5.31941 1.7316 5.23937 1.78132 5.15086 1.81766C5.02254 1.86988 4.88618 1.88826 4.75448 1.87824L2.04417 4.55356L2.90723 5.40578L4.22724 4.1028C4.46947 3.86342 4.83367 3.79198 5.15044 3.92149C5.46721 4.05099 5.67344 4.35554 5.67344 4.69351V13.329H5.67387Z" transform="translate(4 6)" fill="white"/>
</svg>
