<svg width="32" height="28" viewBox="0 0 32 28" fill="none" xmlns="http://www.w3.org/2000/svg">
<mask id="path-1-outside-1" maskUnits="userSpaceOnUse" x="-1" y="-1" width="32" height="28" fill="black">
<rect fill="white" x="-1" y="-1" width="32" height="28"/>
<path d="M28.3203 11.307H27.6066V6.97682C27.6066 5.20621 26.1792 3.77109 24.4319 3.77109H23.7736L23.7797 2.16201C23.7797 0.969176 22.8199 -4.73989e-08 21.6386 -4.73989e-08H2.60254C1.1813 -4.73989e-08 0.0184578 1.15556 0 2.59068C0 2.60311 0 2.61553 0 2.62796V23.838C0 25.0308 0.959803 26 2.1411 26H24.4381C26.1916 26 27.6128 24.5587 27.6128 22.7943V18.4578H28.3265C29.2494 18.4578 30 17.6999 30 16.768V12.9969C29.9938 12.065 29.2432 11.307 28.3203 11.307ZM2.60254 1.49104H21.6386C22.0016 1.49104 22.3031 1.78925 22.3031 2.15579L22.297 3.77109H2.60254C1.98113 3.77109 1.47662 3.26165 1.47662 2.63417C1.47662 2.00669 1.98113 1.49104 2.60254 1.49104ZM26.13 22.7881C26.13 23.7324 25.3671 24.5027 24.4319 24.5027H2.13495C1.77194 24.5027 1.47047 24.2045 1.47047 23.8318V5.00119C1.81501 5.16894 2.19647 5.26213 2.60254 5.26213H24.4319C25.3671 5.26213 26.13 6.0325 26.13 6.97682V11.307H21.0911C20.1682 11.307 19.4176 12.065 19.4176 12.9969V16.768C19.4176 17.6999 20.1682 18.4578 21.0911 18.4578H26.13V22.7881ZM28.5172 16.768C28.5172 16.8798 28.4311 16.9668 28.3203 16.9668H21.0972C20.9865 16.9668 20.9003 16.8798 20.9003 16.768V12.9969C20.9003 12.8913 20.9865 12.7981 21.0972 12.7981H28.3203C28.4249 12.7981 28.5172 12.8851 28.5172 12.9969V16.768Z"/>
</mask>
<path d="M28.3203 11.307H27.6066V6.97682C27.6066 5.20621 26.1792 3.77109 24.4319 3.77109H23.7736L23.7797 2.16201C23.7797 0.969176 22.8199 -4.73989e-08 21.6386 -4.73989e-08H2.60254C1.1813 -4.73989e-08 0.0184578 1.15556 0 2.59068C0 2.60311 0 2.61553 0 2.62796V23.838C0 25.0308 0.959803 26 2.1411 26H24.4381C26.1916 26 27.6128 24.5587 27.6128 22.7943V18.4578H28.3265C29.2494 18.4578 30 17.6999 30 16.768V12.9969C29.9938 12.065 29.2432 11.307 28.3203 11.307ZM2.60254 1.49104H21.6386C22.0016 1.49104 22.3031 1.78925 22.3031 2.15579L22.297 3.77109H2.60254C1.98113 3.77109 1.47662 3.26165 1.47662 2.63417C1.47662 2.00669 1.98113 1.49104 2.60254 1.49104ZM26.13 22.7881C26.13 23.7324 25.3671 24.5027 24.4319 24.5027H2.13495C1.77194 24.5027 1.47047 24.2045 1.47047 23.8318V5.00119C1.81501 5.16894 2.19647 5.26213 2.60254 5.26213H24.4319C25.3671 5.26213 26.13 6.0325 26.13 6.97682V11.307H21.0911C20.1682 11.307 19.4176 12.065 19.4176 12.9969V16.768C19.4176 17.6999 20.1682 18.4578 21.0911 18.4578H26.13V22.7881ZM28.5172 16.768C28.5172 16.8798 28.4311 16.9668 28.3203 16.9668H21.0972C20.9865 16.9668 20.9003 16.8798 20.9003 16.768V12.9969C20.9003 12.8913 20.9865 12.7981 21.0972 12.7981H28.3203C28.4249 12.7981 28.5172 12.8851 28.5172 12.9969V16.768Z" transform="translate(1 1)" fill="#5D86AD"/>
<path d="M28.3203 11.307H27.6066V6.97682C27.6066 5.20621 26.1792 3.77109 24.4319 3.77109H23.7736L23.7797 2.16201C23.7797 0.969176 22.8199 -4.73989e-08 21.6386 -4.73989e-08H2.60254C1.1813 -4.73989e-08 0.0184578 1.15556 0 2.59068C0 2.60311 0 2.61553 0 2.62796V23.838C0 25.0308 0.959803 26 2.1411 26H24.4381C26.1916 26 27.6128 24.5587 27.6128 22.7943V18.4578H28.3265C29.2494 18.4578 30 17.6999 30 16.768V12.9969C29.9938 12.065 29.2432 11.307 28.3203 11.307ZM2.60254 1.49104H21.6386C22.0016 1.49104 22.3031 1.78925 22.3031 2.15579L22.297 3.77109H2.60254C1.98113 3.77109 1.47662 3.26165 1.47662 2.63417C1.47662 2.00669 1.98113 1.49104 2.60254 1.49104ZM26.13 22.7881C26.13 23.7324 25.3671 24.5027 24.4319 24.5027H2.13495C1.77194 24.5027 1.47047 24.2045 1.47047 23.8318V5.00119C1.81501 5.16894 2.19647 5.26213 2.60254 5.26213H24.4319C25.3671 5.26213 26.13 6.0325 26.13 6.97682V11.307H21.0911C20.1682 11.307 19.4176 12.065 19.4176 12.9969V16.768C19.4176 17.6999 20.1682 18.4578 21.0911 18.4578H26.13V22.7881ZM28.5172 16.768C28.5172 16.8798 28.4311 16.9668 28.3203 16.9668H21.0972C20.9865 16.9668 20.9003 16.8798 20.9003 16.768V12.9969C20.9003 12.8913 20.9865 12.7981 21.0972 12.7981H28.3203C28.4249 12.7981 28.5172 12.8851 28.5172 12.9969V16.768Z" transform="translate(1 1)" stroke="#5D86AD" stroke-width="0.5" mask="url(#path-1-outside-1)"/>
</svg>
