<svg width="29" height="16" viewBox="0 0 29 16" fill="none" xmlns="http://www.w3.org/2000/svg">
<path d="M28.8462 14.4498C28.8111 14.3766 28.7783 14.3159 28.7479 14.2672C28.2448 13.3909 27.2833 12.3154 25.864 11.0402L25.834 11.011L25.819 10.9966L25.8038 10.982H25.7886C25.1445 10.3882 24.7366 9.98891 24.5657 9.78451C24.2532 9.39512 24.1832 9.00098 24.354 8.60162C24.4747 8.29989 24.928 7.66268 25.7129 6.68912C26.1258 6.17316 26.4528 5.75964 26.6943 5.44809C28.4358 3.20916 29.1909 1.77845 28.9592 1.1554L28.8693 1.0098C28.8088 0.922148 28.6528 0.841959 28.4014 0.768828C28.1495 0.695851 27.8275 0.683782 27.4348 0.732417L23.0864 0.761464C23.0159 0.737326 22.9154 0.739576 22.7843 0.768828C22.6534 0.798081 22.5879 0.812759 22.5879 0.812759L22.5123 0.849324L22.4522 0.893253C22.4018 0.922301 22.3465 0.973391 22.286 1.04642C22.2259 1.11919 22.1756 1.2046 22.1354 1.30192C21.662 2.47974 21.1237 3.57481 20.5196 4.58709C20.1471 5.1907 19.8051 5.71382 19.4927 6.15675C19.1807 6.59952 18.919 6.92575 18.7078 7.13486C18.4962 7.34418 18.3053 7.51187 18.1339 7.63854C17.9627 7.76527 17.832 7.81881 17.7415 7.79923C17.6508 7.77964 17.5654 7.76021 17.4845 7.74077C17.3437 7.65312 17.2304 7.53391 17.145 7.38305C17.0592 7.23218 17.0015 7.0423 16.9713 6.81354C16.9412 6.58464 16.9235 6.38775 16.9184 6.22221C16.9137 6.05687 16.9159 5.823 16.9261 5.52127C16.9365 5.21939 16.9412 5.01513 16.9412 4.90805C16.9412 4.53809 16.9487 4.13659 16.9637 3.70343C16.9789 3.27027 16.9912 2.92706 17.0015 2.67422C17.0118 2.42113 17.0166 2.15336 17.0166 1.87106C17.0166 1.58877 16.9988 1.36738 16.9637 1.20669C16.929 1.04621 16.8757 0.890441 16.8055 0.739423C16.7349 0.588558 16.6316 0.471855 16.496 0.389007C16.3601 0.306262 16.1912 0.240597 15.9902 0.191809C15.4567 0.0750552 14.7772 0.0118966 13.9517 0.0020776C12.0795 -0.0173558 10.8765 0.0995513 10.343 0.352646C10.1316 0.459581 9.94033 0.60569 9.7693 0.790512C9.58806 1.00474 9.56278 1.12165 9.69362 1.14088C10.2977 1.22838 10.7253 1.4377 10.977 1.76863L11.0677 1.94399C11.1382 2.07051 11.2087 2.29451 11.2792 2.61567C11.3496 2.93683 11.395 3.29211 11.415 3.68129C11.4652 4.39199 11.4652 5.00035 11.415 5.50644C11.3646 6.01273 11.317 6.40687 11.2715 6.68917C11.2261 6.97147 11.1582 7.20022 11.0677 7.37537C10.977 7.55058 10.9166 7.65767 10.8864 7.69654C10.8562 7.7354 10.831 7.7599 10.811 7.76952C10.6802 7.818 10.5441 7.8427 10.4033 7.8427C10.2622 7.8427 10.0912 7.77448 9.88993 7.63813C9.6887 7.50179 9.47986 7.31452 9.2634 7.076C9.04694 6.83743 8.80282 6.50404 8.53094 6.07579C8.25927 5.64754 7.97739 5.1414 7.68547 4.55738L7.44394 4.13383C7.29295 3.86135 7.0867 3.4646 6.82497 2.94394C6.56309 2.42307 6.33161 1.91924 6.13038 1.43253C6.04994 1.22812 5.9291 1.0725 5.76807 0.965413L5.69249 0.921483C5.64225 0.882616 5.5616 0.841346 5.45097 0.797365C5.34017 0.753435 5.22457 0.721932 5.10367 0.70255L0.966527 0.731598C0.543764 0.731598 0.256916 0.824213 0.105876 1.00919L0.0454283 1.09669C0.0152309 1.14543 0 1.22326 0 1.3304C0 1.43749 0.0301974 1.56892 0.090645 1.72454C0.694592 3.09716 1.35137 4.42093 2.06098 5.69607C2.77059 6.97121 3.38723 7.99837 3.91053 8.77663C4.43394 9.55545 4.96744 10.2905 5.51104 10.9814C6.05465 11.6726 6.41448 12.1155 6.59053 12.3101C6.7668 12.505 6.90525 12.6508 7.00589 12.7481L7.38344 13.0985C7.62502 13.3321 7.97977 13.612 8.44786 13.938C8.91605 14.2642 9.43437 14.5854 10.0031 14.902C10.5719 15.2181 11.2337 15.476 11.9887 15.6755C12.7437 15.8752 13.4784 15.9554 14.1932 15.9167H15.9296C16.2818 15.8873 16.5486 15.7802 16.7299 15.5954L16.79 15.5222C16.8304 15.4641 16.8682 15.3739 16.9031 15.2524C16.9384 15.1307 16.956 14.9967 16.956 14.8509C16.9457 14.4324 16.9786 14.0553 17.0539 13.7195C17.1292 13.3838 17.215 13.1307 17.3109 12.9602C17.4068 12.7899 17.515 12.6462 17.6354 12.5297C17.7561 12.413 17.8421 12.3423 17.8925 12.3179C17.9427 12.2934 17.9827 12.2768 18.0129 12.2668C18.2545 12.189 18.5388 12.2644 18.8663 12.4933C19.1935 12.7221 19.5004 13.0045 19.7874 13.3402C20.0743 13.6762 20.419 14.0532 20.8216 14.4716C21.2244 14.8903 21.5766 15.2015 21.8785 15.4062L22.1804 15.5814C22.382 15.6983 22.6437 15.8054 22.9659 15.9027C23.2875 16 23.5692 16.0243 23.8112 15.9757L27.6764 15.9174C28.0587 15.9174 28.3562 15.8562 28.5672 15.7347C28.7786 15.6131 28.9042 15.479 28.9447 15.3332C28.9851 15.1873 28.9873 15.0217 28.9524 14.8365C28.9166 14.6519 28.8813 14.5227 28.8462 14.4498Z" fill="white"/>
</svg>
