<svg width="48" height="48" viewBox="0 0 48 48" fill="none" xmlns="http://www.w3.org/2000/svg">
<path d="M48 22.3604H45.6737V11.7665C45.6737 9.22672 43.5865 7.16053 41.021 7.16053H37.8702L34.6459 1.42147C34.1545 0.544393 33.2193 0 32.205 0C31.7323 0 31.2633 0.120689 30.8492 0.348165L18.4749 7.16038H4.65268C2.08715 7.16038 -8.28494e-10 9.22658 -8.28494e-10 11.7664V43.394C-8.28494e-10 45.9338 2.08715 48 4.65268 48H41.021C43.5865 48 45.6737 45.9338 45.6737 43.394V34.1055H48V22.3604ZM41.021 9.00283C42.454 9.00283 43.6246 10.0806 43.7818 11.4596H40.2849L38.9057 9.00283H41.021ZM31.7546 1.95841C32.191 1.71617 32.7782 1.88559 33.0192 2.31589L38.1557 11.4588H14.4959L31.7546 1.95841ZM43.8125 43.394C43.8125 44.9177 42.56 46.1577 41.0208 46.1577H4.65268C3.11356 46.1577 1.86098 44.9177 1.86098 43.394V11.7665C1.86098 10.2428 3.11356 9.00283 4.65268 9.00283H15.1287L10.6658 11.4598H5.2343C4.71971 11.4598 4.30373 11.8724 4.30373 12.381C4.30373 12.8895 4.71971 13.3022 5.2343 13.3022H7.31869H41.3197H43.8125V22.3612H37.0076C33.8474 22.3612 31.2755 24.9075 31.2755 28.0358V28.432C31.2755 31.5604 33.8475 34.1065 37.0076 34.1065H43.8125V43.394ZM46.1389 32.2632H45.6737H37.0076C34.8729 32.2632 33.1365 30.5443 33.1365 28.431V28.0348C33.1365 25.9216 34.8728 24.2025 37.0076 24.2025H45.6737H46.1389V32.2632ZM39.8577 28.3086C39.8577 29.4325 38.9383 30.3425 37.8032 30.3425C36.6679 30.3425 35.7486 29.4323 35.7486 28.3086C35.7486 27.1848 36.668 26.2746 37.8032 26.2746C38.9385 26.2745 39.8577 27.1855 39.8577 28.3086Z" fill="#008CC8"/>
</svg>
